<svg width="133" height="32" viewBox="0 0 133 32" fill="none" xmlns="http://www.w3.org/2000/svg">
<g clip-path="url(#clip0_31013_205041)">
<path d="M47.433 21.8166L47.042 21.6667C46.6509 18.7372 45.2138 16.0553 41.8868 16.0553C37.9145 16.0553 36.7055 20.6076 36.7055 23.6317C36.7055 26.6557 37.9145 31.208 41.8868 31.208C45.2399 31.208 47.0941 29.142 47.5829 25.8932L47.9348 25.7726L49.121 30.0284C46.6249 31.3058 44.4318 31.9999 41.1927 31.9999C36.4415 31.9999 31.8631 29.116 31.8631 23.6317C31.8631 18.1473 36.4383 15.2699 41.1927 15.2699C44.2558 15.2699 46.9409 15.8565 48.945 16.896L47.433 21.8198M58.4668 26.6003V24.4072H58.0073C55.5438 24.4072 53.4583 25.5673 53.4583 28.3404C53.4583 29.6765 54.2534 31.0451 55.6937 31.0451C57.9128 31.0451 58.4701 28.2622 58.4701 26.6003M58.6297 29.494C57.6912 30.9636 56.5312 31.9086 54.7096 31.9086C52.1971 31.9086 49.5088 30.9636 49.5088 28.1025C49.5088 24.619 54.3185 23.6414 57.8411 23.6414H58.3821V22.5368C58.3821 20.5587 57.2937 19.1901 55.4949 19.1901C53.4289 19.2129 52.0994 20.8748 51.4542 23.371L51.0794 23.4752L50.0464 19.604C52.1939 18.962 54.2599 18.3233 56.4562 18.395C59.7866 18.395 62.0057 19.7473 62.0057 23.9575V28.8846C62.0057 29.9991 62.299 30.9343 63.3418 31.2048V31.5632H59.1674L58.6265 29.4875L58.6297 29.494ZM72.0652 22.6899L73.5446 18.3983H72.4399C70.413 18.3983 69.1096 20.5913 68.5914 22.3412H68.5361V20.8325C68.5361 20.0993 68.5914 19.3856 68.5914 18.7502C66.809 19.1086 65.2122 19.3302 63.5731 19.4573V19.806C64.3193 19.9559 65.1079 20.474 65.1079 22.1979V27.4508C65.1079 29.494 64.7593 30.9245 63.4297 31.296V31.6447C64.5898 31.6447 65.776 31.5567 66.9132 31.5567C68.0505 31.5567 69.2334 31.6447 70.387 31.6447V31.296C69.0607 30.9245 68.7088 29.4907 68.7088 27.4508V25.551C68.7088 23.7457 69.2008 21.8231 70.6346 21.8231C71.2766 21.8231 71.6676 22.2435 72.0652 22.6899ZM78.8073 21.1388V18.7469C77.0965 19.1054 75.49 19.327 73.8705 19.4541V19.8027C74.6102 19.9526 75.3955 20.4708 75.3955 22.1946V27.4475C75.3955 29.4907 75.0534 30.9213 73.7173 31.2928V31.6414C74.8774 31.6414 76.0635 31.5535 77.2008 31.5535C78.3381 31.5535 79.5242 31.6414 80.6745 31.6414V31.2928C79.345 30.9213 78.9963 29.4875 78.9963 27.4475V24.5148C78.9963 22.9408 79.5699 19.7539 81.6847 19.7539C83.6562 19.7539 84.0766 21.8524 84.0766 23.4492V29.2756C84.0766 30.5074 83.4314 31.1917 82.5743 31.296V31.6447C83.7018 31.6447 84.8652 31.5567 85.8754 31.5567C86.8855 31.5567 88.1727 31.6447 89.3035 31.6447V31.296C88.1727 31.0744 87.6807 30.4292 87.6807 29.2756V22.742C87.6807 20.1253 85.8265 18.3852 83.213 18.3852C81.0982 18.3852 79.7458 19.3139 78.8562 21.1844H78.8106V21.1355M94.576 28.5359V18.6655C92.875 19.0304 91.2684 19.252 89.6391 19.3726V19.7213C90.3853 19.8809 90.9654 20.3958 90.9654 21.1518V28.5359C90.9654 30.0154 90.6232 31.0255 89.2969 31.2243V31.573C90.457 31.573 91.6334 31.485 92.7772 31.485C93.921 31.485 95.0908 31.573 96.2509 31.573V31.2243C94.9149 31.0255 94.5727 30.0154 94.5727 28.5359M92.7022 13.608C91.6139 13.608 90.835 14.5693 90.835 15.6121C90.835 16.6549 91.6139 17.6064 92.7022 17.6064C93.7906 17.6064 94.5792 16.6451 94.5792 15.6121C94.5792 14.5791 93.7841 13.608 92.7022 13.608ZM102.824 31.1592L106.695 23.3449C107.611 21.5266 108.07 20.6891 109.781 19.5062V19.1543C108.963 19.1543 108.024 19.2422 107.285 19.2422C106.545 19.2422 105.688 19.1543 104.867 19.1543V19.5062C105.805 19.7278 106.402 20.1644 106.402 20.9367C106.402 21.8752 106.053 23.0744 105.607 23.8695L103.808 27.1445L100.709 21.5266C100.582 21.305 100.455 20.9367 100.455 20.6435C100.455 19.9526 101.299 19.6268 101.908 19.5062V19.1543C100.754 19.1543 99.3955 19.2422 98.3365 19.2422C97.2774 19.2422 96.0619 19.1543 94.8855 19.1543V19.6007C96.1401 20.373 95.8697 19.9754 97.1992 22.3119L101.761 31.1592C102.055 31.7229 102.175 31.9217 102.279 31.9217H102.328C102.455 31.9217 102.703 31.4524 102.82 31.1592M118.618 26.597V24.404H118.165C115.702 24.404 113.616 25.564 113.616 28.3372C113.616 29.6732 114.405 31.0418 115.858 31.0418C118.061 31.0418 118.618 28.259 118.618 26.597ZM118.785 29.4907C117.846 30.9604 116.686 31.9054 114.864 31.9054C112.342 31.9054 109.664 30.9604 109.664 28.0993C109.664 24.6158 114.467 23.6382 117.989 23.6382H118.53V22.5335C118.53 20.5555 117.448 19.1869 115.653 19.1869C113.584 19.2097 112.251 20.8716 111.615 23.3677L111.241 23.472L110.208 19.6007C112.345 18.9587 114.421 18.32 116.614 18.3917C119.938 18.3917 122.164 19.7441 122.164 23.9543V28.8814C122.164 29.9958 122.457 30.931 123.5 31.2015V31.56H119.325L118.785 29.4842V29.4907ZM125.139 16.6614V27.3693C125.139 29.419 124.797 30.8496 123.47 31.2243V31.573C124.624 31.573 125.807 31.485 126.944 31.485C128.081 31.485 129.268 31.573 130.428 31.573V31.2243C129.092 30.8496 128.749 29.419 128.749 27.3693V16.2508C128.749 15.3351 128.821 14.3673 128.821 13.6113C127.071 13.9991 125.393 14.2956 123.715 14.4683V14.8398C124.774 15.0614 125.139 15.5567 125.139 16.6614ZM132.673 15.1038C132.673 14.452 132.145 13.9306 131.503 13.9306C130.861 13.9306 130.33 14.452 130.33 15.1038C130.33 15.7555 130.858 16.2769 131.503 16.2769C132.148 16.2769 132.673 15.749 132.673 15.1038ZM130.89 15.8793V14.3706H131.552C131.93 14.3706 132.054 14.6019 132.054 14.7681C132.054 15.006 131.881 15.1885 131.624 15.2048V15.2113C131.757 15.2537 131.845 15.384 131.969 15.5828L132.152 15.8793H131.855L131.731 15.6414C131.532 15.3025 131.467 15.2374 131.278 15.2374H131.128V15.8826H130.89M131.128 15.0321H131.477C131.666 15.0321 131.8 14.9571 131.8 14.8007C131.8 14.6704 131.682 14.5791 131.519 14.5791H131.132V15.0321M131.503 16.5115C130.724 16.5115 130.099 15.8826 130.099 15.107C130.099 14.3315 130.724 13.7025 131.503 13.7025C132.282 13.7025 132.908 14.3217 132.908 15.107C132.908 15.8924 132.279 16.5115 131.503 16.5115Z" fill="#1C191B"/>
<mask id="mask0_31013_205041" style="mask-type:luminance" maskUnits="userSpaceOnUse" x="0" y="-1" width="43" height="33">
<path d="M28.4872 11.9918L42.3528 4.11563H42.369C42.369 4.11563 42.3658 4.11563 42.3593 4.10911L42.369 4.10259L42.3169 4.08304C41.8868 3.81909 38.791 1.94862 36.145 0.987316C34.2778 0.309516 32.176 -0.231421 32.0228 0.097703C32.0228 0.100962 32.0228 0.107479 32.0196 0.113996L21.3018 8.96776L15.5438 8.38121C15.5438 8.38121 14.5141 8.22479 14.387 10.5091C14.2534 12.8977 16.3845 12.334 16.3845 12.334L16.7723 13.3995L0 31.723L26.8709 31.7784L27.679 14.6183L27.6855 14.5955C28.2917 14.3706 29.8134 13.8036 29.8428 13.7156C29.8786 13.6081 29.8786 13.393 29.8786 13.393L28.4122 12.2264L28.4839 11.9918H28.4872Z" fill="white"/>
</mask>
<g mask="url(#mask0_31013_205041)">
<path d="M27.943 11.8517L29.8786 13.393C29.8786 13.393 29.8786 13.6081 29.8428 13.7156C29.8069 13.8232 27.4411 14.6835 27.4411 14.6835L27.943 11.8517Z" fill="#022C41"/>
<path d="M42.369 4.10581L28.4872 11.9918L27.679 14.6182L26.8709 31.7783L0 31.7229L16.7723 13.3995L16.3845 12.3339C16.3845 12.3339 14.2566 12.8944 14.387 10.5091C14.5141 8.22801 15.5438 8.38117 15.5438 8.38117L21.3018 8.96773L32.0489 0.0878906L42.369 4.10581Z" fill="#720812"/>
<path d="M41.6815 4.39908C41.6587 4.45447 28.1971 12.0732 28.2167 12.1873C28.2363 12.285 27.4965 15.0549 27.5161 15.1135C27.5259 15.1494 26.747 31.7783 26.747 31.7783L0.30957 31.7229C0.30957 31.7229 16.7788 13.5298 16.8375 13.3962C16.8635 13.3376 16.4595 12.285 16.4595 12.285C16.4595 12.285 14.3153 12.8357 14.4424 10.5058C14.5662 8.28014 15.5959 8.43981 15.5959 8.43981L21.3051 9.01985L31.8697 0.449585C31.8697 0.449585 41.7075 4.34042 41.6815 4.39908Z" fill="#750812"/>
<path d="M40.9939 4.6956C40.945 4.80639 27.9039 12.1547 27.9462 12.3828C27.9821 12.5815 27.3173 15.4915 27.3499 15.6088C27.3694 15.6773 26.62 31.775 26.62 31.775L0.612625 31.7229C0.612625 31.7229 16.7756 13.6634 16.8961 13.3962C16.9483 13.2822 16.5279 12.2394 16.5279 12.2394C16.5279 12.2394 14.3674 12.7836 14.4912 10.5058C14.6118 8.33877 15.6383 8.49845 15.6383 8.49845L21.2986 9.07523L31.6904 0.811279C31.6904 0.811279 41.046 4.57829 40.9939 4.69234V4.6956Z" fill="#770712"/>
<path d="M40.3063 4.98886C40.2346 5.15505 27.6138 12.2361 27.679 12.5783C27.7344 12.8748 27.1381 15.9282 27.187 16.1074C27.2163 16.2117 26.4961 31.7783 26.4961 31.7783L0.922195 31.7261C0.922195 31.7261 16.7821 13.8003 16.9646 13.3962C17.0428 13.2235 16.6061 12.1937 16.6061 12.1937C16.6061 12.1937 14.4293 12.7282 14.5499 10.5058C14.6672 8.39416 15.6937 8.56035 15.6937 8.56035L21.3051 9.13061L31.5112 1.17297C31.5112 1.17297 40.3845 4.81289 40.3063 4.98886Z" fill="#7A0712"/>
<path d="M39.6187 5.28542C39.521 5.50701 27.3206 12.3176 27.4086 12.7738C27.4835 13.1714 26.9556 16.3648 27.024 16.6027C27.0631 16.7429 26.3723 31.775 26.3723 31.775L1.22852 31.7229C1.22852 31.7229 16.7821 13.9274 17.0265 13.393C17.1308 13.1648 16.6811 12.1481 16.6811 12.1481C16.6811 12.1481 14.488 12.6728 14.6053 10.5058C14.7194 8.44957 15.7458 8.61902 15.7458 8.61902L21.3116 9.18277L31.3352 1.53796C31.3352 1.53796 39.7263 5.05405 39.622 5.28868L39.6187 5.28542Z" fill="#7D0711"/>
<path d="M38.9312 5.58199C38.8106 5.85897 27.0306 12.4024 27.1381 12.9726C27.2326 13.4679 26.7731 16.8048 26.8578 17.1013C26.9067 17.2773 26.2452 31.7751 26.2452 31.7751L1.53483 31.7229C1.53483 31.7229 16.7821 14.061 17.0884 13.3897C17.2187 13.103 16.7528 12.0993 16.7528 12.0993C16.7528 12.0993 14.5434 12.6142 14.6574 10.4993C14.765 8.50174 15.7947 8.67119 15.7947 8.67119L21.3116 9.22842L31.156 1.89319C31.156 1.89319 39.0648 5.28219 38.9377 5.57547L38.9312 5.58199Z" fill="#800711"/>
<path d="M38.2468 5.87524C38.1002 6.20762 26.7438 12.4805 26.8709 13.1681C26.9817 13.7644 26.5939 17.2414 26.6949 17.5999C26.7536 17.8084 26.1214 31.7783 26.1214 31.7783L1.8444 31.7294C1.8444 31.7294 16.7886 14.2011 17.1536 13.393C17.31 13.0475 16.8277 12.0569 16.8277 12.0569C16.8277 12.0569 14.6053 12.562 14.7161 10.5058C14.8204 8.56363 15.8468 8.7396 15.8468 8.7396L21.3149 9.29031L30.9768 2.26465C30.9768 2.26465 38.4033 5.52982 38.2501 5.88176L38.2468 5.87524Z" fill="#820611"/>
<path d="M37.5593 6.17185C37.3898 6.55963 26.4505 12.5653 26.6004 13.3637C26.7308 14.0578 26.4147 17.6782 26.532 18.0953C26.6004 18.3397 25.9976 31.7751 25.9976 31.7751L2.15071 31.7262C2.15071 31.7262 16.7886 14.3283 17.2155 13.3898C17.398 12.989 16.8994 12.0081 16.8994 12.0081C16.8994 12.0081 14.6607 12.5034 14.7682 10.5026C14.8692 8.6191 15.8957 8.79506 15.8957 8.79506L21.3149 9.34252L30.7943 2.62317C30.7943 2.62317 37.7385 5.76125 37.5593 6.17185Z" fill="#850611"/>
<path d="M36.8717 6.46511C36.6762 6.90828 26.1605 12.6435 26.3299 13.5592C26.4798 14.3543 26.2322 18.1148 26.3658 18.5906C26.444 18.8708 25.8705 31.7751 25.8705 31.7751L2.45702 31.7262C2.45702 31.7262 16.7919 14.4618 17.2774 13.3865C17.4859 12.927 16.9711 11.9625 16.9711 11.9625C16.9711 11.9625 14.7161 12.448 14.8204 10.4993C14.9181 8.67122 15.9446 8.8537 15.9446 8.8537L21.3149 9.39464L30.6151 2.98486C30.6151 2.98486 37.0802 5.99912 36.8717 6.46511Z" fill="#880611"/>
<path d="M36.1841 6.76158C35.9658 7.26016 25.8705 12.7282 26.0627 13.7547C26.2289 14.6475 26.053 18.5514 26.2029 19.0891C26.2908 19.4019 25.7466 31.775 25.7466 31.775L2.76334 31.7294C2.76334 31.7294 16.7919 14.5954 17.3393 13.3897C17.5739 12.8748 17.0428 11.92 17.0428 11.92C17.0428 11.92 14.7715 12.3958 14.8725 10.5058C14.967 8.73633 15.9902 8.91881 15.9902 8.91881L21.3149 9.45323L30.4326 3.35303C30.4326 3.35303 36.4155 6.2402 36.1841 6.7681V6.76158Z" fill="#8A0611"/>
<path d="M35.4965 7.05811C35.2521 7.61208 25.5772 12.8096 25.7923 13.9534C25.978 14.9441 25.8705 18.9913 26.0399 19.5876C26.1377 19.9363 25.6228 31.775 25.6228 31.775L3.07291 31.7294C3.07291 31.7294 16.7984 14.729 17.4077 13.3864C17.6684 12.8129 17.121 11.8711 17.121 11.8711C17.121 11.8711 14.8334 12.3371 14.9312 10.4993C15.0224 8.7852 16.0456 8.97094 16.0456 8.97094L21.3214 9.49885L30.2599 3.70496C30.2599 3.70496 35.7605 6.46504 35.503 7.0516L35.4965 7.05811Z" fill="#8D0510"/>
<path d="M34.809 7.35141C34.5418 7.96078 25.2872 12.8911 25.5218 14.1457C25.7271 15.2374 25.688 19.4247 25.8737 20.0797C25.9813 20.4642 25.4957 31.7718 25.4957 31.7718L3.37597 31.7262C3.37597 31.7262 16.7951 14.8594 17.4664 13.3832C17.7532 12.751 17.1894 11.8223 17.1894 11.8223C17.1894 11.8223 14.8855 12.2785 14.98 10.4993C15.068 8.84062 16.0912 9.03288 16.0912 9.03288L21.3181 9.55426L30.0741 4.06995C30.0741 4.06995 35.0925 6.7062 34.809 7.35141Z" fill="#900510"/>
<path d="M34.1214 7.64797C33.8281 8.31274 24.9971 12.9726 25.2513 14.3445C25.4729 15.5339 25.5088 19.8679 25.7075 20.5816C25.8248 20.9987 25.3686 31.7751 25.3686 31.7751L3.68228 31.7294C3.68228 31.7294 16.7951 14.993 17.5283 13.3832C17.8411 12.6956 17.2644 11.7799 17.2644 11.7799C17.2644 11.7799 14.9475 12.2264 15.0354 10.5026C15.1169 8.90255 16.1401 9.09481 16.1401 9.09481L21.3181 9.60968L29.8949 4.43494C29.8949 4.43494 34.431 6.94736 34.1214 7.64797Z" fill="#930510"/>
<path d="M33.4338 7.94128C33.1177 8.66144 24.7039 13.0541 24.9809 14.5368C25.222 15.8272 25.3263 20.3014 25.5446 21.0737C25.6717 21.5266 25.2448 31.7686 25.2448 31.7686L3.99185 31.7262C3.99185 31.7262 16.8016 15.1234 17.5935 13.3767C17.9324 12.6305 17.3393 11.7278 17.3393 11.7278C17.3393 11.7278 15.0061 12.1678 15.0908 10.4928C15.169 8.94821 16.1923 9.14698 16.1923 9.14698L21.3246 9.65859L29.7189 4.79016C29.7189 4.79016 33.7727 7.1755 33.4371 7.93802L33.4338 7.94128Z" fill="#950510"/>
<path d="M32.7462 8.23779C32.4073 9.01335 24.4138 13.1388 24.7136 14.7356C24.9743 16.1237 25.147 20.7413 25.3817 21.5755C25.5185 22.0643 25.121 31.7751 25.121 31.7751L4.29816 31.7327C4.29816 31.7327 16.8016 15.2635 17.6554 13.3832C18.0204 12.5816 17.411 11.6887 17.411 11.6887C17.411 11.6887 15.0615 12.1189 15.143 10.5026C15.2179 9.01661 16.2411 9.21539 16.2411 9.21539L21.3246 9.72048L29.5397 5.16162C29.5397 5.16162 33.1112 7.41987 32.7527 8.24105L32.7462 8.23779Z" fill="#980410"/>
<path d="M32.0587 8.53102C31.6937 9.36197 24.1206 13.217 24.4432 14.931C24.7202 16.4202 24.9646 21.1779 25.2155 22.0707C25.3621 22.5954 24.9939 31.7718 24.9939 31.7718L4.60448 31.7294C4.60448 31.7294 16.8049 15.3905 17.7173 13.3766C18.1083 12.5164 17.4827 11.6365 17.4827 11.6365C17.4827 11.6365 15.1169 12.0569 15.1951 10.496C15.2668 9.06544 16.29 9.27073 16.29 9.27073L21.3246 9.76931L29.3572 5.52002C29.3572 5.52002 32.4497 7.65444 32.0619 8.53428L32.0587 8.53102Z" fill="#9B0410"/>
<path d="M31.3711 8.82766C30.98 9.71402 23.8306 13.3018 24.1727 15.1266C24.4692 16.7136 24.7821 21.6146 25.0525 22.5662C25.209 23.1234 24.8701 31.7686 24.8701 31.7686L4.9108 31.7295C4.9108 31.7295 16.8049 15.5242 17.7792 13.3767C18.1963 12.4578 17.5544 11.5943 17.5544 11.5943C17.5544 11.5943 15.1723 12.0049 15.2473 10.4994C15.3157 9.12746 16.3356 9.33275 16.3356 9.33275L21.3214 9.82481L29.1715 5.88184C29.1715 5.88184 31.7817 7.88917 31.3678 8.82766H31.3711Z" fill="#9D040F"/>
<path d="M30.6868 9.1241C30.2729 10.0658 23.5438 13.3832 23.9055 15.3253C24.2216 17.0133 24.6061 22.0544 24.8896 23.0679C25.0558 23.661 24.7462 31.775 24.7462 31.775L5.22037 31.7359C5.22037 31.7359 16.8114 15.6642 17.8477 13.3799C18.2908 12.4056 17.6326 11.5518 17.6326 11.5518C17.6326 11.5518 15.2342 11.9526 15.3059 10.5025C15.3711 9.18601 16.391 9.39457 16.391 9.39457L21.3312 9.88011L29.002 6.2467C29.002 6.2467 31.1299 8.13021 30.69 9.12736L30.6868 9.1241Z" fill="#A0040F"/>
<path d="M29.9992 9.41748C29.5625 10.4146 23.2505 13.4647 23.635 15.5177C23.9707 17.3034 24.4236 22.488 24.7234 23.5601C24.8994 24.189 24.6191 31.7686 24.6191 31.7686L5.52342 31.7295C5.52342 31.7295 16.8081 15.7882 17.9063 13.3735C18.3756 12.3405 17.701 11.4998 17.701 11.4998C17.701 11.4998 15.2864 11.8908 15.3548 10.4961C15.4167 9.23826 16.4367 9.45007 16.4367 9.45007L21.3279 9.93235L28.8163 6.60852C28.8163 6.60852 30.4619 8.36494 29.9959 9.42074L29.9992 9.41748Z" fill="#A3030F"/>
<path d="M29.3116 9.71397C28.8489 10.7633 22.9605 13.5461 23.3646 15.7164C23.7165 17.6032 24.2411 22.9278 24.5605 24.0586C24.7462 24.7201 24.4953 31.7718 24.4953 31.7718L5.83299 31.7327C5.83299 31.7327 16.8147 15.925 17.9715 13.3734C18.4668 12.285 17.776 11.4541 17.776 11.4541C17.776 11.4541 15.3483 11.8354 15.4102 10.496C15.4688 9.2936 16.4855 9.50867 16.4855 9.50867L21.3279 9.98443L28.6371 6.96692C28.6371 6.96692 29.8004 8.59951 29.3116 9.71397Z" fill="#A5030F"/>
<path d="M28.624 10.0072C28.1385 11.1119 22.6705 13.6276 23.0973 15.9087C23.4688 17.8932 24.0619 23.3612 24.3976 24.5539C24.5931 25.2512 24.3715 31.7685 24.3715 31.7685L6.14256 31.7327C6.14256 31.7327 16.8179 16.0586 18.0367 13.3702C18.558 12.2231 17.8542 11.4052 17.8542 11.4052C17.8542 11.4052 15.4102 11.7767 15.4688 10.4928C15.521 9.34572 16.5409 9.56731 16.5409 9.56731L21.3344 10.0366L28.4611 7.32861C28.4611 7.32861 29.1422 8.83411 28.6273 10.0072H28.624Z" fill="#A8030F"/>
<path d="M27.9365 10.3038C27.4248 11.4639 22.3772 13.7091 22.8269 16.1075C23.2179 18.193 23.8794 23.8011 24.2314 25.0525C24.4367 25.7857 24.2444 31.7686 24.2444 31.7686L6.44562 31.7327C6.44562 31.7327 16.8147 16.1889 18.0953 13.3702C18.6428 12.1645 17.9226 11.3628 17.9226 11.3628C17.9226 11.3628 15.4623 11.7246 15.5177 10.496C15.5666 9.40766 16.5866 9.62924 16.5866 9.62924L21.3312 10.092L28.2786 7.6936C28.2786 7.6936 28.4774 9.07527 27.9365 10.307V10.3038Z" fill="#AB030F"/>
<path d="M27.2489 10.6004C26.7145 11.8158 22.0872 13.7938 22.5564 16.303C22.9637 18.4863 23.6969 24.2378 24.0684 25.5478C24.2835 26.3169 24.1206 31.7686 24.1206 31.7686L6.75519 31.7327C6.75519 31.7327 16.8212 16.3226 18.1605 13.367C18.734 12.1059 17.9976 11.314 17.9976 11.314C17.9976 11.314 15.521 11.6692 15.5731 10.4928C15.6187 9.45983 16.6354 9.68467 16.6354 9.68467L21.3344 10.1409L28.0994 8.04883C28.0994 8.04883 27.8159 9.30341 27.2489 10.5938V10.6004Z" fill="#AE020E"/>
<path d="M26.5613 10.8936C26.0008 12.1645 21.7939 13.872 22.2859 16.4985C22.7128 18.7796 23.5177 24.6745 23.9022 26.0464C24.1271 26.848 23.9935 31.7686 23.9935 31.7686L7.05825 31.736C7.05825 31.736 16.8179 16.4561 18.2191 13.3702C18.8187 12.0504 18.066 11.2716 18.066 11.2716C18.066 11.2716 15.5731 11.617 15.622 10.4961C15.6644 9.52171 16.6811 9.74982 16.6811 9.74982L21.3312 10.2028L27.9169 8.42029C27.9169 8.42029 27.1544 9.55104 26.5613 10.9001V10.8936Z" fill="#B0020E"/>
<path d="M25.8737 11.1902C25.2904 12.5164 21.5039 13.9568 22.0187 16.6973C22.4652 19.0794 23.3385 25.1144 23.7393 26.545C23.9739 27.3824 23.8697 31.7686 23.8697 31.7686L7.36782 31.736C7.36782 31.736 16.8244 16.5898 18.2843 13.367C18.91 11.9918 18.1409 11.2228 18.1409 11.2228C18.1409 11.2228 15.6318 11.5584 15.6774 10.4896C15.7165 9.57062 16.7332 9.80199 16.7332 9.80199L21.3344 10.2484L27.7377 8.77551C27.7377 8.77551 26.4929 9.77918 25.8737 11.1869V11.1902Z" fill="#B3020E"/>
<path d="M25.1861 11.4834C24.5768 12.8651 21.2138 14.035 21.7483 16.8895C22.2143 19.3694 23.156 25.5511 23.5764 27.037C23.8208 27.9103 23.7458 31.7653 23.7458 31.7653L7.67413 31.7327C7.67413 31.7327 16.8244 16.7201 18.3495 13.3637C19.0012 11.9299 18.2159 11.1771 18.2159 11.1771C18.2159 11.1771 15.6937 11.503 15.7328 10.4895C15.7686 9.62926 16.7853 9.86389 16.7853 9.86389L21.3377 10.3038L27.5617 9.13721C27.5617 9.13721 25.8346 10.017 25.1894 11.4834H25.1861Z" fill="#B6020E"/>
<path d="M24.4986 11.78C23.8664 13.2171 20.9206 14.1197 21.4778 17.0883C21.9601 19.6692 22.9735 25.991 23.4102 27.5389C23.6644 28.4448 23.6187 31.7686 23.6187 31.7686L7.98045 31.7393C7.98045 31.7393 16.8277 16.857 18.4114 13.367C19.0892 11.8745 18.2876 11.1348 18.2876 11.1348C18.2876 11.1348 15.7491 11.4509 15.7849 10.4928C15.8175 9.68794 16.831 9.92582 16.831 9.92582L21.3377 10.3592L27.3792 9.5022C27.3792 9.5022 25.1699 10.2549 24.4986 11.78Z" fill="#B8010E"/>
<path d="M23.8143 12.0732C23.156 13.5657 20.6338 14.1979 21.2106 17.2806C21.7124 19.9592 22.7943 26.4243 23.2472 28.0309C23.5112 28.9726 23.4949 31.7653 23.4949 31.7653L8.28676 31.736C8.28676 31.736 16.8277 16.9873 18.4733 13.3604C19.1772 11.8125 18.3593 11.0826 18.3593 11.0826C18.3593 11.0826 15.8045 11.3889 15.8371 10.4863C15.8664 9.74003 16.8798 9.98117 16.8798 9.98117L21.3377 10.4081L27.2 9.8606C27.2 9.8606 24.5083 10.4895 23.811 12.0732H23.8143Z" fill="#BB010E"/>
<path d="M23.1267 12.3698C22.4456 13.9176 20.3438 14.2826 20.9401 17.4794C21.4615 20.259 22.6151 26.8643 23.0843 28.5327C23.358 29.5103 23.3711 31.7686 23.3711 31.7686L8.59634 31.7392C8.59634 31.7392 16.831 17.1242 18.5385 13.3637C19.2684 11.7572 18.4375 11.0402 18.4375 11.0402C18.4375 11.0402 15.8664 11.3368 15.8957 10.4928C15.9218 9.80196 16.9352 10.0464 16.9352 10.0464L21.3442 10.47L27.024 10.2288C27.024 10.2288 23.8501 10.7307 23.1299 12.373L23.1267 12.3698Z" fill="#BE010D"/>
<path d="M22.4391 12.6662C21.732 14.2695 20.0505 14.364 20.6697 17.6748C21.2073 20.5522 22.4326 27.3009 22.9181 29.028C23.2016 30.0381 23.244 31.7652 23.244 31.7652L8.90265 31.7392C8.90265 31.7392 16.8342 17.2544 18.6004 13.3603C19.3564 11.6984 18.5092 10.9946 18.5092 10.9946C18.5092 10.9946 15.9218 11.2813 15.9479 10.4927C15.9707 9.86054 16.9809 10.1049 16.9809 10.1049L21.3409 10.522L26.8383 10.5905C26.8383 10.5905 23.1821 10.9685 22.4358 12.6695L22.4391 12.6662Z" fill="#C1010D"/>
<path d="M21.7515 12.9595C21.0216 14.6182 19.7605 14.4455 20.4024 17.8703C20.9597 20.8487 22.2534 27.7375 22.7552 29.5233C23.0485 30.5693 23.1202 31.7652 23.1202 31.7652L9.20896 31.7392C9.20896 31.7392 16.8342 17.388 18.6623 13.3603C19.4444 11.6398 18.5809 10.9489 18.5809 10.9489C18.5809 10.9489 15.9772 11.2259 16 10.4927C16.0163 9.91595 17.0297 10.1669 17.0297 10.1669L21.3442 10.5775L26.6623 10.9555C26.6623 10.9555 22.5271 11.2064 21.7515 12.966V12.9595Z" fill="#C3000D"/>
<path d="M26.4831 11.3107C26.4831 11.3107 21.8656 11.4378 21.0639 13.2561C20.3112 14.9702 19.4672 14.527 20.132 18.0659C20.7088 21.1421 22.0709 28.1742 22.5923 30.0219C22.8953 31.1038 22.9963 31.7653 22.9963 31.7653L9.51853 31.7392C9.51853 31.7392 16.8407 17.5217 18.7275 13.3571C19.5356 11.5779 18.6558 10.9001 18.6558 10.9001C18.6558 10.9001 16.0391 11.1706 16.0554 10.4863C16.0684 9.96487 17.0819 10.219 17.0819 10.219L21.3475 10.6231L26.4831 11.3074V11.3107Z" fill="#C6000D"/>
<path d="M1.98126 31.7263L18.7666 12.4969L18.9947 13.38L4.19715 31.7393L1.98126 31.7263ZM7.63177 31.7393L17.8379 15.8436L17.789 15.1299L6.90183 31.7393H7.62851H7.63177Z" fill="#DD9B82"/>
<path opacity="0.75" d="M16.58 18.6753C14.5466 22.3478 14.0415 25.9552 15.4525 26.7373C16.8635 27.5193 19.6562 25.1764 21.6896 21.5071C23.723 17.8379 24.2281 14.2273 22.8171 13.4452C21.4061 12.6631 18.6134 15.0061 16.58 18.6753Z" fill="#E0A37D"/>
<path d="M35.8778 5.70585C32.8505 6.46186 23.0126 9.05575 20.5263 13.7059C18.0399 18.3527 26.0399 31.5437 26.0399 31.5437L26.0986 31.7816H26.8709L27.679 14.6215L28.4872 11.9951L42.3299 4.12866C41.9454 4.2199 38.7161 4.99546 35.8745 5.70585H35.8778Z" fill="#FDFBFF"/>
<g filter="url(#filter0_d_31013_205041)">
<path d="M35.8778 5.70585C32.8505 6.46186 23.0126 9.05575 20.5263 13.7059C18.0399 18.3527 26.0399 31.5437 26.0399 31.5437L26.0986 31.7816H26.8709L27.679 14.6215L28.4872 11.9951L42.3299 4.12866C41.9454 4.2199 38.7161 4.99546 35.8745 5.70585H35.8778Z" fill="#FDFBFF"/>
</g>
<path d="M28.4872 11.9918L41.6587 4.50989C38.7682 5.44186 26.835 9.39135 25.222 11.6007C23.6741 13.7188 23.7165 15.8793 23.987 17.274C24.1955 18.3396 25.3849 22.2728 25.7108 24.4333C26.0367 26.5971 26.8709 31.7816 26.8709 31.7816L27.679 14.6215L28.4872 11.995V11.9918Z" fill="#0055B2"/>
<g style="mix-blend-mode:multiply">
<path d="M42.369 4.10581L32.0489 0.0878906L21.3018 8.96773L20.813 8.91559L27.4444 19.7441L27.679 14.6182L28.4872 11.9918L42.369 4.10581Z" fill="#B8B4A5"/>
</g>
<path d="M15.899 10.4309C15.8697 11.1836 15.6253 11.7832 15.3548 11.7735C15.0811 11.7637 14.8823 11.1445 14.9116 10.3951C14.9409 9.6423 15.1853 9.04271 15.4558 9.05249C15.7295 9.06226 15.9283 9.68141 15.899 10.4309Z" fill="#1E160A"/>
<path d="M21.9438 9.34575L21.7613 9.06877L32.2379 0.26062L32.4399 0.579968L21.9438 9.34575Z" fill="#EB9A7D"/>
<path d="M20.233 9.62607L15.9283 9.00041L15.8566 8.69409L20.9303 9.28717L20.233 9.62607Z" fill="#F59B88"/>
<path d="M42.3691 4.11563C42.3691 4.11563 39.2147 3.67571 36.4318 2.59709C34.1051 1.69444 31.8631 0.426827 32.0196 0.097703C32.176 -0.231421 34.2745 0.309516 36.1418 0.987316C38.9931 2.02357 42.3658 4.11563 42.3658 4.11563H42.3691Z" fill="#DD582F"/>
</g>
</g>
<defs>
<filter id="filter0_d_31013_205041" x="18.4602" y="3.4639" width="26.7146" height="32.0847" filterUnits="userSpaceOnUse" color-interpolation-filters="sRGB">
<feFlood flood-opacity="0" result="BackgroundImageFix"/>
<feColorMatrix in="SourceAlpha" type="matrix" values="0 0 0 0 0 0 0 0 0 0 0 0 0 0 0 0 0 0 127 0" result="hardAlpha"/>
<feOffset dx="0.628921" dy="1.55112"/>
<feGaussianBlur stdDeviation="1.10794"/>
<feColorMatrix type="matrix" values="0 0 0 0 0 0 0 0 0 0 0 0 0 0 0 0 0 0 0.75 0"/>
<feBlend mode="normal" in2="BackgroundImageFix" result="effect1_dropShadow_31013_205041"/>
<feBlend mode="normal" in="SourceGraphic" in2="effect1_dropShadow_31013_205041" result="shape"/>
</filter>
<clipPath id="clip0_31013_205041">
<rect width="132.908" height="32" fill="white"/>
</clipPath>
</defs>
</svg>
