<svg width="113" height="32" viewBox="0 0 113 32" fill="none" xmlns="http://www.w3.org/2000/svg">
<g clip-path="url(#clip0_27590_76369)">
<path d="M24.7731 21.4975C22.5479 21.5111 20.5343 20.1808 19.6735 18.1288C18.8127 16.0769 19.2743 13.7084 20.8432 12.1301C22.4119 10.5518 24.7776 10.0757 26.8347 10.9241C28.8918 11.7726 30.2342 13.7781 30.2342 16.0033C30.2393 19.0267 27.7966 21.4842 24.7731 21.4975ZM24.7731 8.45128C21.7188 8.43528 18.9563 10.2631 17.7766 13.0802C16.5966 15.8976 17.2323 19.1483 19.3862 21.3137C21.5405 23.4792 24.7879 24.1318 27.6114 22.9665C30.4348 21.8013 32.2768 19.0484 32.2768 15.9942C32.2768 11.8435 28.9235 8.473 24.7731 8.45128Z" fill="black"/>
<path d="M52.6369 8.88577C52.5674 8.88637 52.5034 8.92288 52.4678 8.98232L44.7347 19.4971L37.002 8.98232C36.9657 8.92198 36.9001 8.88517 36.8299 8.88577C36.7176 8.88577 36.6262 8.97568 36.6247 9.08792V23.0966H38.6702V14.8235L44.6143 22.8492C44.6439 22.8851 44.6882 22.9059 44.7347 22.9059C44.7816 22.9059 44.8255 22.8851 44.8555 22.8492L50.7992 14.8235V23.0966H52.8448V9.08792C52.8441 9.03361 52.8218 8.98172 52.783 8.9437C52.7435 8.90569 52.6911 8.88487 52.6369 8.88577Z" fill="black"/>
<path d="M65.3513 15.9462H60.5843V10.9377H65.3513C66.7326 10.9377 67.8526 12.0577 67.8526 13.4389C67.8526 14.8202 66.7326 15.9402 65.3513 15.9402V15.9462ZM65.3513 8.88H58.5325V23.0908H60.5781V18.0039H65.3454C67.8632 18.0039 69.9041 15.9628 69.9041 13.445C69.9041 10.9271 67.8632 8.88604 65.3454 8.88604" fill="black"/>
<path d="M7.88323 21.4998C5.30536 21.5143 3.06389 19.7345 2.49394 17.2206C1.924 14.7064 3.17854 12.1339 5.5108 11.0354C7.84279 9.93656 10.6252 10.6073 12.2008 12.6475L13.6702 11.1962C11.6423 8.74629 8.29565 7.83118 5.30353 8.90892C2.3111 9.98665 0.316452 12.8252 0.316452 16.0056C0.316452 19.186 2.3111 22.0245 5.30353 23.1022C8.29565 24.18 11.6423 23.2649 13.6702 20.815L12.2008 19.3637C11.1734 20.71 9.57674 21.4998 7.88323 21.4998Z" fill="black"/>
<path d="M94.1564 14.6938L92.5906 14.3378C90.907 13.9757 90.7803 12.8292 90.7803 12.4702C90.7803 11.3086 91.7067 10.6418 93.3208 10.6418C94.9803 10.6418 96.1929 11.7672 96.5641 12.1504L98.0033 10.7353C96.6516 9.31724 95.122 8.62329 93.3208 8.62329C90.5783 8.62329 88.7347 10.1651 88.7347 12.4611C88.7347 13.1913 88.7347 15.4119 92.4215 16.3201L94.1352 16.7244C95.7256 17.1618 96.4978 17.9312 96.4978 19.0717C96.4978 20.4083 95.2095 21.3406 93.3692 21.3406C91.3989 21.3406 90.1859 19.9859 89.8239 19.5303L88.4027 20.9303C89.3712 22.0346 91.0248 23.344 93.39 23.344C96.3379 23.344 98.5614 21.5036 98.5614 19.0657C98.5614 16.8813 97.0531 15.3667 94.1715 14.6878" fill="black"/>
<path d="M107.924 14.6938L106.357 14.3378C104.674 13.9757 104.547 12.8292 104.547 12.4702C104.547 11.3086 105.473 10.6418 107.088 10.6418C108.747 10.6418 109.96 11.7672 110.328 12.1504L111.77 10.7353C110.419 9.31724 108.886 8.62329 107.088 8.62329C104.345 8.62329 102.501 10.1651 102.501 12.4611C102.501 13.1913 102.501 15.4119 106.189 16.3201L107.912 16.7153C109.499 17.1528 110.271 17.9222 110.271 19.0627C110.271 20.3993 108.985 21.3316 107.145 21.3316C105.175 21.3316 103.959 19.9769 103.6 19.5213L102.158 20.9363C103.126 22.0406 104.78 23.3501 107.145 23.3501C110.093 23.3501 112.316 21.5096 112.316 19.0717C112.316 16.8873 110.808 15.3727 107.927 14.6938" fill="black"/>
<path d="M75.8727 17.3973L78.2141 12.9319L80.5584 17.3973H75.8727ZM78.2141 8.75916C78.1335 8.75976 78.0607 8.80683 78.027 8.87984L70.5714 23.0967H72.8856L74.7926 19.455H81.6323L83.5421 23.0967H85.8535L78.4011 8.87984C78.3667 8.80743 78.2942 8.76066 78.2141 8.75916Z" fill="black"/>
<path d="M21.5483 17.7804L22.9935 19.2347L27.996 14.2051L26.5477 12.7509L21.5483 17.7804Z" fill="black"/>
</g>
<defs>
<clipPath id="clip0_27590_76369">
<rect width="112" height="32" fill="white" transform="translate(0.316452)"/>
</clipPath>
</defs>
</svg>
