<svg width="137" height="32" viewBox="0 0 137 32" fill="none" xmlns="http://www.w3.org/2000/svg">
<path d="M39.7533 12.5982V19.5441H41.4852C41.9271 19.5375 42.3633 19.4424 42.7679 19.2643C43.1724 19.0862 43.5372 18.8288 43.8405 18.5073C44.4631 17.8481 44.8037 16.9719 44.7899 16.0654C44.8031 15.6151 44.7272 15.1666 44.5665 14.7457C44.4059 14.3248 44.1636 13.9399 43.8537 13.6129C43.5491 13.2909 43.1819 13.0347 42.7745 12.8601C42.3672 12.6854 41.9284 12.596 41.4852 12.5973H39.7542L39.7533 12.5982ZM41.4852 10.4203C44.713 10.4203 47.1549 12.9214 47.1549 16.0654C47.1549 19.2093 44.713 21.7245 41.4852 21.7245H37.6656C37.6292 21.7241 37.5932 21.7164 37.5597 21.7021C37.5263 21.6877 37.496 21.6669 37.4705 21.6408C37.4451 21.6147 37.4251 21.5839 37.4116 21.5501C37.3981 21.5163 37.3914 21.4801 37.3918 21.4437V10.7127C37.3918 10.5572 37.5146 10.4309 37.6656 10.4309L41.4852 10.4203ZM55.4749 19.786C56.9409 19.7905 58.2648 18.8888 58.8291 17.5014C59.1055 16.8235 59.1794 16.08 59.0418 15.3609C58.9041 14.6419 58.5609 13.9783 58.0537 13.4504C57.5553 12.9312 56.9112 12.5754 56.2064 12.43C55.5015 12.2846 54.7692 12.3565 54.1061 12.6361C52.7513 13.2084 51.8664 14.5623 51.8638 16.0654C51.8638 18.1143 53.4782 19.7763 55.4758 19.786H55.4749ZM55.4758 10.1642C58.8732 10.1642 61.4705 12.8419 61.4705 16.0654C61.4705 19.2888 58.8732 21.9665 55.4749 21.9665C52.0775 21.9665 49.5023 19.3021 49.5023 16.0654C49.5023 12.8287 52.0996 10.1642 55.4749 10.1642H55.4758ZM69.7234 19.786C71.722 19.7807 73.339 18.1169 73.3372 16.068C73.3346 14.0174 71.714 12.3571 69.7164 12.3562C67.717 12.3562 66.0955 14.0156 66.0929 16.0654C66.0929 17.0527 66.4753 17.9994 67.1562 18.6971C67.4894 19.041 67.8883 19.3145 68.3291 19.5015C68.7699 19.6885 69.2437 19.7853 69.7226 19.786H69.7234ZM69.7226 10.1642C73.1094 10.1642 75.7067 12.8287 75.7067 16.0654C75.7067 19.3021 73.0988 21.9665 69.7226 21.9665C66.3472 21.9665 63.7278 19.3021 63.7278 16.0654C63.7278 12.8287 66.3251 10.1642 69.7226 10.1642ZM83.6284 12.5982H81.1866V15.5876H83.6284C83.8214 15.5961 84.014 15.5651 84.1945 15.4962C84.3749 15.4274 84.5393 15.3224 84.6776 15.1875C84.9602 14.9138 85.1209 14.534 85.1245 14.1348C85.1316 13.9323 85.0977 13.7304 85.0249 13.5413C84.952 13.3523 84.8417 13.1798 84.7006 13.0344C84.562 12.8913 84.395 12.7788 84.2104 12.7042C84.0257 12.6295 83.8275 12.5943 83.6284 12.6008V12.5982ZM78.8242 10.7127C78.8242 10.5572 78.9478 10.4309 79.0988 10.4309H83.6964C85.8884 10.4309 87.4745 12.078 87.4745 14.1463C87.4913 15.5452 86.7274 16.8302 85.5077 17.4563L87.6282 21.3006C87.6575 21.3448 87.674 21.3963 87.6759 21.4493C87.6777 21.5023 87.6649 21.5547 87.6388 21.6009C87.6132 21.6463 87.5752 21.6834 87.5291 21.7079C87.4831 21.7323 87.431 21.743 87.3791 21.7387H85.5183C85.4667 21.7394 85.416 21.7255 85.3719 21.6986C85.3278 21.6718 85.2923 21.633 85.2693 21.5868L83.2257 17.7822H81.1777V21.4349C81.1783 21.4714 81.1717 21.5076 81.1582 21.5415C81.1448 21.5754 81.1248 21.6064 81.0993 21.6326C81.0739 21.6587 81.0435 21.6796 81.01 21.694C80.9765 21.7085 80.9404 21.7161 80.904 21.7166H79.1112C79.0747 21.7161 79.0387 21.7085 79.0051 21.694C78.9716 21.6796 78.9412 21.6587 78.9158 21.6326C78.8904 21.6064 78.8704 21.5754 78.8569 21.5415C78.8435 21.5076 78.8368 21.4714 78.8374 21.4349L78.8251 10.7135L78.8242 10.7127ZM93.6317 12.6511V19.5979H95.3627C95.8045 19.5919 96.2407 19.4974 96.6454 19.3199C97.0501 19.1425 97.4151 18.8856 97.7189 18.5647C98.3418 17.9063 98.683 17.0308 98.67 16.1245C98.6842 15.6737 98.6089 15.2245 98.4487 14.8028C98.2885 14.3812 98.0465 13.9954 97.7365 13.6676C97.4314 13.3451 97.0634 13.0886 96.6553 12.9139C96.2471 12.7392 95.8075 12.6501 95.3635 12.652L93.6317 12.6511ZM95.3627 10.4707C98.5905 10.4707 101.032 12.9744 101.032 16.1245C101.032 19.2747 98.5905 21.7784 95.3627 21.7784H91.5546C91.5181 21.7779 91.482 21.7703 91.4485 21.7559C91.415 21.7414 91.3846 21.7206 91.3592 21.6944C91.3338 21.6682 91.3138 21.6373 91.3003 21.6033C91.2868 21.5694 91.2802 21.5332 91.2808 21.4967V10.7665C91.2808 10.6102 91.4036 10.4839 91.5546 10.4839L95.3635 10.4707H95.3627ZM108.235 13.2331L106.896 16.9476H109.572L108.235 13.2331ZM106.11 19.0468L105.233 21.5196C105.215 21.5778 105.179 21.6285 105.129 21.6637C105.079 21.6989 105.02 21.7165 104.959 21.7139H103.057C103.008 21.7184 102.959 21.7098 102.915 21.689C102.871 21.6682 102.834 21.6359 102.807 21.5956C102.779 21.5548 102.762 21.5075 102.758 21.4583C102.754 21.4091 102.762 21.3597 102.783 21.3148L106.893 10.5943C106.912 10.5378 106.949 10.4891 106.999 10.4556C107.048 10.4221 107.107 10.4057 107.167 10.4089H109.295C109.355 10.4055 109.414 10.4218 109.464 10.4553C109.513 10.4888 109.55 10.5376 109.57 10.5943L113.68 21.3148C113.7 21.3597 113.709 21.4092 113.704 21.4584C113.7 21.5076 113.683 21.5549 113.655 21.5956C113.628 21.6358 113.59 21.6679 113.546 21.6885C113.502 21.7092 113.453 21.7177 113.405 21.713H111.504C111.443 21.7157 111.383 21.698 111.334 21.6628C111.284 21.6276 111.248 21.5769 111.23 21.5188L110.353 19.046H106.11V19.0468ZM115.885 13.4742C115.885 11.6991 117.381 10.1642 119.743 10.1642C121.016 10.1358 122.247 10.6117 123.17 11.4881C123.198 11.5146 123.22 11.5467 123.236 11.5822C123.251 11.6177 123.259 11.656 123.259 11.6947C123.259 11.7334 123.251 11.7717 123.236 11.8072C123.22 11.8427 123.198 11.8748 123.17 11.9014L122.116 12.9744C122.091 13.0004 122.061 13.0212 122.028 13.0353C121.994 13.0495 121.958 13.0568 121.922 13.0568C121.886 13.0568 121.85 13.0495 121.817 13.0353C121.783 13.0212 121.753 13.0004 121.728 12.9744C121.232 12.5092 120.58 12.2457 119.9 12.2352C118.955 12.2352 118.256 12.7977 118.256 13.4469C118.256 15.5452 123.84 14.3344 123.84 18.3721C123.838 20.4184 122.33 21.9665 119.665 21.9665C118.925 21.9741 118.191 21.8327 117.506 21.5508C116.822 21.2689 116.201 20.8523 115.681 20.3256C115.653 20.2991 115.63 20.267 115.615 20.2315C115.6 20.196 115.592 20.1577 115.592 20.119C115.592 20.0803 115.6 20.042 115.615 20.0065C115.63 19.9709 115.653 19.9389 115.681 19.9123L116.7 18.8667C116.725 18.8393 116.756 18.8175 116.79 18.8026C116.825 18.7877 116.862 18.78 116.899 18.78C116.936 18.78 116.973 18.7877 117.007 18.8026C117.041 18.8175 117.072 18.8393 117.098 18.8667C117.739 19.5025 118.603 19.8636 119.506 19.8735C120.687 19.8735 121.465 19.227 121.465 18.4172C121.465 16.3179 115.883 17.5296 115.883 13.491L115.885 13.4742ZM133.966 10.6985V14.9411H129.24V10.6985C129.24 10.6621 129.234 10.626 129.22 10.5921C129.207 10.5583 129.186 10.5275 129.161 10.5014C129.136 10.4753 129.105 10.4545 129.072 10.4401C129.038 10.4258 129.002 10.4181 128.966 10.4177H127.173C127.137 10.4181 127.101 10.4258 127.067 10.4401C127.034 10.4545 127.004 10.4753 126.978 10.5014C126.953 10.5275 126.933 10.5583 126.919 10.5921C126.906 10.626 126.899 10.6621 126.899 10.6985V21.4172C126.899 21.5726 127.023 21.6989 127.173 21.6989H128.966C129.116 21.6989 129.24 21.5726 129.24 21.4172V17.1075H133.963V21.4172C133.963 21.5726 134.086 21.6989 134.237 21.6989H136.029C136.18 21.6989 136.303 21.5726 136.303 21.4172V10.6985C136.304 10.6621 136.297 10.626 136.283 10.5921C136.27 10.5583 136.25 10.5275 136.224 10.5014C136.199 10.4753 136.169 10.4545 136.135 10.4401C136.102 10.4258 136.066 10.4181 136.029 10.4177H134.237C134.164 10.4195 134.094 10.4501 134.044 10.5026C133.993 10.5552 133.965 10.6256 133.966 10.6985ZM27.3285 11.8484C26.085 9.54338 23.652 8.10827 21.0061 8.11711H0.987182C0.851989 8.11765 0.719946 8.15797 0.607506 8.23304C0.495066 8.3081 0.4072 8.4146 0.354857 8.53925C0.303279 8.6631 0.289845 8.79953 0.316278 8.93106C0.34271 9.06259 0.407804 9.18324 0.503224 9.27755L4.86415 13.6049C5.2492 13.9882 5.77378 14.2028 6.31956 14.2028H20.4321C21.438 14.1922 22.2602 14.9888 22.2708 15.9806C22.2814 16.9724 21.4751 17.7848 20.4692 17.7946H10.7397C10.6044 17.7946 10.4721 17.8345 10.3593 17.9093C10.2465 17.984 10.1583 18.0903 10.1056 18.2149C10.0535 18.3389 10.0397 18.4757 10.066 18.6075C10.0923 18.7394 10.1574 18.8604 10.253 18.955L14.6166 23.2859C15.0041 23.669 15.5272 23.8836 16.072 23.8829H20.4727C26.1981 23.8829 30.5272 17.8422 27.3285 11.8457" fill="#FF3008"/>
</svg>
