<svg width="123" height="32" viewBox="0 0 123 32" fill="none" xmlns="http://www.w3.org/2000/svg">
<path d="M14.4422 8.50989L7.37266 13.0198L14.4422 17.5297L7.37266 22.0396L0.303101 17.5053L7.37266 12.9954L0.303101 8.50989L7.37266 4L14.4422 8.50989ZM7.33609 23.49L14.4056 18.9802L21.4752 23.49L14.4056 27.9999L7.33609 23.49ZM14.4422 17.5053L21.5118 12.9954L14.4422 8.50989L21.4752 4L28.5448 8.50989L21.4752 13.0198L28.5448 17.5297L21.4752 22.0396L14.4422 17.5053Z" fill="#0061FF"/>
<path d="M34.0851 8.8023H39.8017C43.4462 8.8023 46.4569 10.911 46.4569 15.7256V16.7373C46.4569 21.5885 43.6412 23.7703 39.9114 23.7703H34.0851V8.8023ZM37.2786 11.5204V21.04H39.7286C41.8007 21.04 43.1902 19.687 43.1902 16.6763V15.884C43.1902 12.8734 41.7276 11.5204 39.6189 11.5204H37.2786ZM48.1511 11.6667H50.7108L51.1252 14.4823C51.6128 12.5687 52.856 11.5448 55.111 11.5448H55.9033V14.7749H54.5869C51.9906 14.7749 51.3568 15.6768 51.3568 18.2365V23.8068H48.1999V11.6667H48.1511ZM56.5371 17.9805V17.6392C56.5371 13.5803 59.1333 11.362 62.6681 11.362C66.276 11.362 68.7991 13.5803 68.7991 17.6392V17.9805C68.7991 21.9663 66.3491 24.1116 62.6681 24.1116C58.7555 24.075 56.5371 21.9785 56.5371 17.9805ZM65.569 17.944V17.6392C65.569 15.3843 64.4355 14.0313 62.6315 14.0313C60.8641 14.0313 59.694 15.2746 59.694 17.6392V17.944C59.694 20.1258 60.8276 21.3691 62.6315 21.3691C64.4355 21.3325 65.569 20.1258 65.569 17.944ZM70.4568 11.6667H73.0896L73.3943 13.9582C74.0281 12.4224 75.3811 11.362 77.3801 11.362C80.4639 11.362 82.4994 13.5803 82.4994 17.688V18.0293C82.4994 22.0151 80.2445 24.1237 77.3801 24.1237C75.4664 24.1237 74.15 23.2583 73.504 21.8688V27.9998H70.4202L70.4568 11.6667ZM79.2937 17.944V17.6758C79.2937 15.2624 78.0505 14.0679 76.3928 14.0679C74.6254 14.0679 73.4553 15.4209 73.4553 17.6758V17.9074C73.4553 20.0527 74.5888 21.4056 76.3562 21.4056C78.1724 21.3691 79.2937 20.2111 79.2937 17.944ZM87.1678 21.5641L86.8996 23.7825H84.1937V7.60779H87.2775V13.8119C87.96 12.2274 89.313 11.362 91.2267 11.362C94.1276 11.3985 96.2729 13.3975 96.2729 17.4199V17.7977C96.2729 21.82 94.2373 24.1237 91.1535 24.1237C89.118 24.075 87.8016 23.1364 87.1678 21.5641ZM93.0306 17.7977V17.493C93.0306 15.2746 91.8239 14.0313 90.1297 14.0313C88.3988 14.0313 87.1921 15.4209 87.1921 17.5296V17.7977C87.1921 20.0527 88.3623 21.3691 90.0931 21.3691C91.9458 21.3691 93.0306 20.2111 93.0306 17.7977ZM97.6258 17.9805V17.6392C97.6258 13.5803 100.222 11.362 103.757 11.362C107.365 11.362 109.888 13.5803 109.888 17.6392V17.9805C109.888 21.9663 107.401 24.1116 103.757 24.1116C99.8442 24.075 97.6258 21.9785 97.6258 17.9805ZM106.682 17.944V17.6392C106.682 15.3843 105.549 14.0313 103.745 14.0313C101.977 14.0313 100.807 15.2746 100.807 17.6392V17.944C100.807 20.1258 101.941 21.3691 103.745 21.3691C105.561 21.3325 106.682 20.1258 106.682 17.944ZM114.02 17.493L109.766 11.6667H113.41L115.86 15.3112L118.347 11.6667H121.955L117.64 17.4564L122.186 23.7825H118.615L115.836 19.7601L113.13 23.7825H109.4L114.02 17.493Z" fill="black"/>
</svg>
