<svg width="92" height="32" viewBox="0 0 92 32" fill="none" xmlns="http://www.w3.org/2000/svg">
<g clip-path="url(#clip0_27436_1788)">
<path d="M28.9629 13.695H20.2437C19.7623 13.695 19.3878 14.2295 19.5483 14.6571L21.6345 20.0558C21.7415 20.2696 21.5275 20.5369 21.2601 20.5369L18.5855 20.3765C18.4785 20.3765 18.3715 20.43 18.2645 20.5369L16.2318 23.4768C16.1248 23.6371 15.9109 23.6906 15.6969 23.5837L12.5944 21.499C12.4874 21.3921 12.3269 21.3921 12.1664 21.499L7.88708 24.3854C7.61962 24.5993 7.24518 24.332 7.35216 24.0113L8.58248 19.7351C8.63597 19.5747 8.52899 19.3609 8.36851 19.3075L6.12185 18.3988C5.90788 18.2919 5.8009 18.0246 5.96138 17.8643L7.94058 15.4055C8.04756 15.2985 8.04756 15.0847 7.94058 14.9778L6.28233 12.5725C6.12185 12.3587 6.28233 12.038 6.54979 12.038L9.17089 11.8241C9.38486 11.8241 9.49184 11.6638 9.49184 11.45L9.27787 7.81523C9.27787 7.54796 9.54533 7.38761 9.7593 7.44106L12.9688 8.77737C13.1293 8.83082 13.2898 8.77737 13.3968 8.67046L15.6434 6.21166C15.8039 5.99785 16.1248 6.0513 16.2318 6.31856L17.5691 9.73951C17.7296 10.1671 18.2645 10.3275 18.639 10.0602L23.8812 6.1582C24.4696 5.73059 24.0951 4.76844 23.3462 4.87535L19.9763 5.30297C19.8158 5.30297 19.6553 5.24952 19.6018 5.08916L17.7831 0.438807C17.5691 -0.0422638 16.9807 -0.149168 16.6063 0.224998L12.6479 4.50118C12.5409 4.60809 12.3804 4.66154 12.2199 4.60809L7.03121 2.41654C6.54979 2.20273 6.06836 2.52345 6.01487 3.05797L5.8009 8.4032C5.8009 8.61701 5.64042 8.72391 5.47995 8.72391L0.719169 9.04463C0.18425 9.09808 -0.136702 9.68606 0.18425 10.1671L3.34027 14.8175C3.44726 14.9244 3.44726 15.1382 3.34027 15.2451L0.130758 18.9333C-0.136702 19.2006 0.0237742 19.7885 0.451709 19.9489L4.14265 21.5525C4.30313 21.6059 4.41011 21.8197 4.35662 21.9801L2.00297 31.1204C1.8425 31.7619 2.59139 32.2429 3.1263 31.8688L11.9525 25.5614C12.0595 25.4545 12.2199 25.4545 12.3804 25.5614L16.3923 28.3944C16.7132 28.6082 17.1947 28.5547 17.4086 28.1806L19.9228 24.332C19.9763 24.2251 20.1367 24.1716 20.2437 24.1716L26.2348 24.92C26.7162 24.9734 27.1977 24.5993 27.0372 24.1182L24.5231 17.6504C24.4696 17.4901 24.5231 17.2763 24.737 17.1694L29.2838 15.0313C29.9257 14.7106 29.7118 13.695 28.9629 13.695Z" fill="#8039E9"/>
<path d="M91.3881 13.6949H84.6481C84.5411 13.6949 84.3807 13.8018 84.3807 13.9622V16.9555C84.3807 17.0624 84.4877 17.2228 84.6481 17.2228H87.5367C87.6972 17.2228 87.8042 17.3297 87.8042 17.4901C87.8042 19.0402 87.4832 21.8197 84.6481 21.8197C82.348 21.8197 81.4386 19.0402 81.4386 15.833C81.4386 11.9845 82.4015 9.63256 84.4877 9.63256C86.0389 9.63256 86.5203 10.9154 86.6808 11.3965C86.7343 11.5034 86.7878 11.5568 86.8948 11.5568H90.4253C90.5857 11.5568 90.6927 11.4499 90.6927 11.2896C90.5322 9.3653 88.9275 5.9978 84.5946 5.9978C81.5456 5.9978 78.7105 7.86863 77.8012 12.4121V6.53233C77.8012 6.47887 77.7477 6.42542 77.6942 6.42542H73.9497C73.8963 6.42542 73.8428 6.47887 73.8428 6.53233V17.009C73.8428 17.1159 73.6823 17.1693 73.6288 17.0624L68.761 6.47887C68.761 6.42542 68.7075 6.42542 68.6541 6.42542H65.2841C65.2306 6.42542 65.1771 6.47887 65.1771 6.53233V12.4121C63.9468 8.67042 60.6303 5.9978 56.3509 5.9978C51.5366 5.9978 47.9527 9.31185 47.1503 13.7484H40.4103C40.3568 13.7484 40.3033 13.8018 40.3033 13.8553V17.0624C40.3033 17.1159 40.3568 17.1693 40.4103 17.1693H43.5663C43.6198 17.1693 43.6733 17.2228 43.6733 17.2762C43.6733 18.7729 43.4059 21.7128 40.5173 21.7128C38.2172 21.7128 37.3078 18.9333 37.3078 15.7261C37.3078 11.8776 38.2706 9.52566 40.3568 9.52566C42.0151 9.52566 42.443 11.0223 42.55 11.3965C42.55 11.4499 42.6035 11.5034 42.657 11.5034H46.4014C46.4549 11.5034 46.5084 11.4499 46.5084 11.3965C46.4549 9.52566 44.7967 5.9978 40.3568 5.9978C36.6659 5.9978 33.2959 8.72387 33.2959 15.7261C33.2959 20.5368 35.1681 25.3475 40.4103 25.3475C44.3152 25.3475 46.7759 22.3542 47.3108 18.7195C48.4876 22.568 51.8576 25.3475 56.2439 25.3475C60.4698 25.3475 63.8398 22.6749 65.0701 18.9333V24.8665C65.0701 24.9199 65.1236 24.9734 65.1771 24.9734H68.9215C68.975 24.9734 69.0285 24.9199 69.0285 24.8665V14.4967C69.0285 14.3898 69.189 14.3364 69.2425 14.4433L74.1102 24.8665C74.1102 24.9199 74.1637 24.9199 74.2172 24.9199H77.5337C77.5872 24.9199 77.6407 24.8665 77.6407 24.813V18.9333C78.3896 22.4611 80.4223 25.3475 84.4877 25.3475C88.9275 25.3475 91.4951 21.4455 91.4951 17.1693V13.9622C91.6556 13.8018 91.4951 13.6949 91.3881 13.6949ZM56.2974 21.4455C53.1949 21.4455 51.0017 19.0402 51.0017 15.6727C51.0017 12.3052 53.1949 9.89982 56.2974 9.89982C59.3999 9.89982 61.5931 12.3052 61.5931 15.6727C61.5931 19.0402 59.4534 21.4455 56.2974 21.4455Z" fill="#3E0075"/>
</g>
<defs>
<clipPath id="clip0_27436_1788">
<rect width="91.5628" height="32" fill="white"/>
</clipPath>
</defs>
</svg>
