<svg width="110" height="32" viewBox="0 0 110 32" fill="none" xmlns="http://www.w3.org/2000/svg">
<g clip-path="url(#clip0_27590_76375)">
<g clip-path="url(#clip1_27590_76375)">
<path d="M85.6659 21.0526C86.6242 21.0744 87.5607 20.7151 88.2576 20.0508L89.5425 21.4446C88.6932 22.3158 87.5171 22.9691 85.6986 22.9691C82.5625 22.9691 80.548 20.8893 80.548 18.0799C80.5044 15.4229 82.6169 13.2232 85.2739 13.1797C85.3175 13.1797 85.3719 13.1797 85.4155 13.1797C88.5298 13.1797 90.283 15.5426 90.1305 18.8312H82.7803C83.0416 20.1924 83.9999 21.0635 85.6659 21.0635M87.9091 17.2632C87.7131 15.9891 86.9509 15.0526 85.4264 15.0526C84.0108 15.0526 83.0307 15.8475 82.7803 17.2632H87.9091ZM37.4156 20.9546L43.0671 15.2051H37.5462V13.3866H45.6914V15.2377L40.0399 20.9764H45.7676V22.784H37.4156V20.9437V20.9546ZM52.1161 21.0526C53.0743 21.0744 54.0108 20.7151 54.7077 20.0508L55.9927 21.4446C55.1433 22.3158 53.9673 22.9691 52.1488 22.9691C49.0126 22.9691 46.9981 20.8893 46.9981 18.0799C46.9546 15.4229 49.0671 13.2232 51.7241 13.1797C51.7676 13.1797 51.8221 13.1797 51.8656 13.1797C54.9691 13.1797 56.7331 15.5426 56.5807 18.8312H49.2304C49.4918 20.1924 50.45 21.0635 52.1161 21.0635M54.3593 17.2632C54.1633 15.9891 53.401 15.0526 51.8765 15.0526C50.4609 15.0526 49.4809 15.8475 49.2195 17.2632H54.3484H54.3593ZM68.7876 18.069C68.7876 15.0744 71.0308 13.1797 73.5026 13.1797C74.7004 13.1688 75.8547 13.6806 76.6387 14.5844V9.04174H78.6315V22.7622H76.6387V21.4555C75.8656 22.4029 74.7113 22.9474 73.4917 22.9365C71.0961 22.9365 68.7985 21.0417 68.7985 18.0581M76.7585 18.0363C76.6823 15.4011 73.4917 14.1488 71.6406 16.0327C69.7894 17.9165 71.1396 21.0962 73.7749 21.0962C75.4954 21.0962 76.7585 19.7241 76.7585 18.0472M91.4373 20.7695L93.2449 19.833C93.7349 20.7042 94.6605 21.2269 95.6623 21.2051C96.7948 21.2051 97.3828 20.6279 97.3828 19.9637C97.3828 19.2015 96.2939 19.0381 95.0961 18.7985C93.4953 18.4719 91.8293 17.9274 91.8293 16C91.8293 14.5191 93.2449 13.147 95.4663 13.1688C97.2086 13.1688 98.5262 13.8657 99.2666 14.9873L97.5897 15.9129C97.1215 15.216 96.3157 14.8131 95.4772 14.8457C94.3991 14.8457 93.8438 15.3684 93.8438 15.9673C93.8438 16.6425 94.7149 16.8276 96.0652 17.1325C97.6115 17.4592 99.3646 17.9819 99.3646 19.931C99.3646 21.2377 98.2322 22.9691 95.5534 22.9583C93.5933 22.9583 92.2213 22.1742 91.4264 20.7804M104.788 18.6025L103.198 20.3339V22.7731H101.205V9.05263H103.198V18.0254L107.444 13.3648H109.884L106.203 17.3938L109.971 22.7622H107.706L104.788 18.5917V18.6025ZM62.744 13.1906C60.3702 13.1906 58.3883 14.726 58.3883 17.2849V22.7731H60.4246V17.5245C60.4246 15.9891 61.3066 15.0635 62.8202 15.0635C64.3339 15.0635 65.0852 15.9891 65.0852 17.5245V22.7514H67.1106V17.2632C67.1106 14.7151 65.1179 13.1688 62.7549 13.1688M14.6352 10.3376V28H2.28882e-05L14.6352 10.3376ZM14.6352 4C14.6352 8.03993 11.3575 11.3176 7.31761 11.3176C3.27769 11.3176 2.28882e-05 8.03993 2.28882e-05 4H14.6243H14.6352ZM17.0417 28C17.0417 23.9601 20.3194 20.6824 24.3593 20.6824C28.3993 20.6824 31.6769 23.9601 31.6769 28H17.0526H17.0417ZM17.0417 21.6624V4H31.6769L17.0417 21.6624Z" fill="#03363D"/>
</g>
</g>
<defs>
<clipPath id="clip0_27590_76375">
<rect width="109.96" height="32" fill="white"/>
</clipPath>
<clipPath id="clip1_27590_76375">
<rect width="109.96" height="24" fill="white" transform="translate(2.28882e-05 4)"/>
</clipPath>
</defs>
</svg>
